<svg aria-hidden="true" style="position: absolute; width: 0; height: 0; overflow: hidden;" version="1.1" xmlns="http://www.w3.org/2000/svg" xmlns:xlink="http://www.w3.org/1999/xlink">
<defs>
<symbol id="icon-add-solid" viewBox="0 0 20 20">
<path d="M11 9v-4h-2v4h-4v2h4v4h2v-4h4v-2h-4zM10 20c-5.523 0-10-4.477-10-10s4.477-10 10-10v0c5.523 0 10 4.477 10 10s-4.477 10-10 10v0z"></path>
</symbol>
</defs>

<defs>
<symbol id="icon-plus" viewBox="0 0 20 20">
<path d="M16 10c0 0.553-0.048 1-0.601 1h-4.399v4.399c0 0.552-0.447 0.601-1 0.601s-1-0.049-1-0.601v-4.399h-4.399c-0.552 0-0.601-0.447-0.601-1s0.049-1 0.601-1h4.399v-4.399c0-0.553 0.447-0.601 1-0.601s1 0.048 1 0.601v4.399h4.399c0.553 0 0.601 0.447 0.601 1z"></path>
</symbol>
</defs>
</svg>




